<svg width="543" height="292" viewBox="0 0 543 292" fill="none" xmlns="http://www.w3.org/2000/svg">
<path d="M514.29 12.8H26.35V278.61H514.29V12.8Z" fill="#CC7829"/>
<path d="M526.97 279.67H15.37V287.75H526.97V279.67Z" fill="#BED5E6"/>
<path d="M349.1 98.61H313.39V67.19C313.39 62.83 315.07 63.37 318.08 60.19L322.84 55.19H339.65L344.4 60.19C347.4 63.34 349.1 62.8 349.1 67.19V98.61Z" fill="#E3EAF3"/>
<path d="M341.78 46.54H320.71C318.313 46.54 316.37 48.4831 316.37 50.88V50.91C316.37 53.3069 318.313 55.25 320.71 55.25H341.78C344.177 55.25 346.12 53.3069 346.12 50.91V50.88C346.12 48.4831 344.177 46.54 341.78 46.54Z" fill="#E3EAF3"/>
<path d="M349.09 74.17H313.39V85.43H349.09V74.17Z" fill="#EF3E3B"/>
<path d="M389.26 98.61H353.56V67.19C353.56 62.83 355.24 63.37 358.25 60.19L363 55.19H379.82L384.57 60.19C387.57 63.34 389.26 62.8 389.26 67.19V98.61Z" fill="#E3EAF3"/>
<path d="M381.94 46.54H360.87C358.473 46.54 356.53 48.4831 356.53 50.88V50.91C356.53 53.3069 358.473 55.25 360.87 55.25H381.94C384.337 55.25 386.28 53.3069 386.28 50.91V50.88C386.28 48.4831 384.337 46.54 381.94 46.54Z" fill="#E3EAF3"/>
<path d="M389.26 74.17H353.56V85.43H389.26V74.17Z" fill="#EF3E3B"/>
<path d="M458.3 190.27H422.6V158.85C422.6 154.5 424.28 155.03 427.29 151.85L432.04 146.85H448.85L453.61 151.85C456.61 154.99 458.3 154.46 458.3 158.85V190.27Z" fill="#E3EAF3"/>
<path d="M450.98 138.21H429.91C427.513 138.21 425.57 140.153 425.57 142.55V142.58C425.57 144.977 427.513 146.92 429.91 146.92H450.98C453.377 146.92 455.32 144.977 455.32 142.58V142.55C455.32 140.153 453.377 138.21 450.98 138.21Z" fill="#E3EAF3"/>
<path d="M458.3 165.83H422.6V177.09H458.3V165.83Z" fill="#EF3E3B"/>
<path d="M498.47 190.27H462.76V158.85C462.76 154.5 464.44 155.03 467.45 151.85L472.21 146.85H489.02L493.77 151.85C496.77 154.99 498.47 154.46 498.47 158.85V190.27Z" fill="#54A4CC"/>
<path d="M491.15 138.21H470.08C467.683 138.21 465.74 140.153 465.74 142.55V142.58C465.74 144.977 467.683 146.92 470.08 146.92H491.15C493.547 146.92 495.49 144.977 495.49 142.58V142.55C495.49 140.153 493.547 138.21 491.15 138.21Z" fill="#E3EAF3"/>
<path d="M156.52 190.27H120.82V158.85C120.82 154.5 122.5 155.03 125.51 151.85L130.27 146.85H147.08L151.83 151.85C154.83 154.99 156.52 154.46 156.52 158.85V190.27Z" fill="#E3EAF3"/>
<path d="M149.21 138.21H128.14C125.743 138.21 123.8 140.153 123.8 142.55V142.58C123.8 144.977 125.743 146.92 128.14 146.92H149.21C151.607 146.92 153.55 144.977 153.55 142.58V142.55C153.55 140.153 151.607 138.21 149.21 138.21Z" fill="#E3EAF3"/>
<path d="M156.52 165.83H120.82V177.09H156.52V165.83Z" fill="#54A4CC"/>
<path d="M196.69 190.27H160.99V158.85C160.99 154.5 162.67 155.03 165.68 151.85L170.43 146.85H187.24L192 151.85C195 154.99 196.69 154.46 196.69 158.85V190.27Z" fill="#E3EAF3"/>
<path d="M189.37 138.21H168.3C165.903 138.21 163.96 140.153 163.96 142.55V142.58C163.96 144.977 165.903 146.92 168.3 146.92H189.37C191.767 146.92 193.71 144.977 193.71 142.58V142.55C193.71 140.153 191.767 138.21 189.37 138.21Z" fill="#E3EAF3"/>
<path d="M196.69 165.83H160.99V177.09H196.69V165.83Z" fill="#EF3E3B"/>
<path d="M92.05 279.81H56.35V248.39C56.35 244.04 58.03 244.57 61.04 241.39L65.79 236.39H82.6L87.36 241.39C90.36 244.53 92.05 244 92.05 248.39V279.81Z" fill="#E3EAF3"/>
<path d="M84.73 227.74H63.66C61.2631 227.74 59.32 229.683 59.32 232.08V232.11C59.32 234.507 61.2631 236.45 63.66 236.45H84.73C87.1269 236.45 89.07 234.507 89.07 232.11V232.08C89.07 229.683 87.1269 227.74 84.73 227.74Z" fill="#E3EAF3"/>
<path d="M92.05 255.37H56.35V266.63H92.05V255.37Z" fill="#54A4CC"/>
<path d="M132.21 279.81H96.51V248.39C96.51 244.04 98.19 244.57 101.2 241.39L105.96 236.39H122.77L127.52 241.39C130.52 244.53 132.21 244 132.21 248.39V279.81Z" fill="#E3EAF3"/>
<path d="M124.9 227.74H103.83C101.433 227.74 99.49 229.683 99.49 232.08V232.11C99.49 234.507 101.433 236.45 103.83 236.45H124.9C127.297 236.45 129.24 234.507 129.24 232.11V232.08C129.24 229.683 127.297 227.74 124.9 227.74Z" fill="#E3EAF3"/>
<path d="M132.21 255.37H96.51V266.63H132.21V255.37Z" fill="#EF3E3B"/>
<path d="M502.72 98.61H451.62V53.68C451.62 47.45 454.03 48.22 458.34 43.68L465.14 36.57H489.21L496.01 43.68C500.32 48.19 502.72 47.42 502.72 53.68V98.61Z" fill="#54A4CC"/>
<path d="M492.24 24.08H462.1C458.665 24.08 455.88 26.8648 455.88 30.3V30.33C455.88 33.7652 458.665 36.55 462.1 36.55H492.24C495.675 36.55 498.46 33.7652 498.46 30.33V30.3C498.46 26.8648 495.675 24.08 492.24 24.08Z" fill="#E3EAF3"/>
<path d="M502.72 63.63H451.62V79.75H502.72V63.63Z" fill="#EF3E3B"/>
<path d="M103.19 190.27H52.09V145.27C52.09 139.04 54.49 139.81 58.8 135.27L65.61 128.16H89.67L96.47 135.27C100.78 139.78 103.19 139.01 103.19 145.27V190.27Z" fill="#E3EAF3"/>
<path d="M92.71 115.75H62.57C59.1348 115.75 56.35 118.535 56.35 121.97V122C56.35 125.435 59.1348 128.22 62.57 128.22H92.71C96.1452 128.22 98.93 125.435 98.93 122V121.97C98.93 118.535 96.1452 115.75 92.71 115.75Z" fill="#54A4CC"/>
<path d="M103.19 155.29H52.09V171.41H103.19V155.29Z" fill="#EF3E3B"/>
<path d="M410.41 190.27H359.3V145.27C359.3 139.04 361.71 139.81 366.02 135.27L372.82 128.16H396.94L403.74 135.27C408.05 139.78 410.46 139.01 410.46 145.27L410.41 190.27Z" fill="#E3EAF3"/>
<path d="M399.92 115.75H369.78C366.345 115.75 363.56 118.535 363.56 121.97V122C363.56 125.435 366.345 128.22 369.78 128.22H399.92C403.355 128.22 406.14 125.435 406.14 122V121.97C406.14 118.535 403.355 115.75 399.92 115.75Z" fill="#54A4CC"/>
<path d="M410.4 155.29H359.3V171.41H410.4V155.29Z" fill="#EF3E3B"/>
<path d="M308.53 277.46H257.43V232.46C257.43 226.22 259.83 226.99 264.14 222.46L270.95 215.35H295.01L301.82 222.46C306.13 226.96 308.53 226.19 308.53 232.46V277.46Z" fill="#E3EAF3"/>
<path d="M298.05 202.94H267.91C264.475 202.94 261.69 205.725 261.69 209.16V209.19C261.69 212.625 264.475 215.41 267.91 215.41H298.05C301.485 215.41 304.27 212.625 304.27 209.19V209.16C304.27 205.725 301.485 202.94 298.05 202.94Z" fill="#E3EAF3"/>
<path d="M308.53 242.48H257.43V258.6H308.53V242.48Z" fill="#EF3E3B"/>
<path d="M466.17 279.81H415.07V234.81C415.07 228.58 417.48 229.34 421.78 224.81L428.59 217.7H452.65L459.46 224.81C463.77 229.31 466.17 228.55 466.17 234.81V279.81Z" fill="#E3EAF3"/>
<path d="M455.52 205.29H425.38C421.945 205.29 419.16 208.075 419.16 211.51V211.54C419.16 214.975 421.945 217.76 425.38 217.76H455.52C458.955 217.76 461.74 214.975 461.74 211.54V211.51C461.74 208.075 458.955 205.29 455.52 205.29Z" fill="#EF3E3B"/>
<path d="M466.17 240.72H415.07V256.84H466.17V240.72Z" fill="#54A4CC"/>
<path d="M440.62 98.61H407.18V27.62H419.51L423.9 63.12L428.44 27.62H440.62V98.61Z" fill="#E3EAF3"/>
<path d="M415.83 71.55C418.023 71.55 419.8 69.7726 419.8 67.58C419.8 65.3874 418.023 63.61 415.83 63.61C413.637 63.61 411.86 65.3874 411.86 67.58C411.86 69.7726 413.637 71.55 415.83 71.55Z" fill="#ABBCCA"/>
<path d="M415.83 83.72C418.023 83.72 419.8 81.9426 419.8 79.75C419.8 77.5574 418.023 75.78 415.83 75.78C413.637 75.78 411.86 77.5574 411.86 79.75C411.86 81.9426 413.637 83.72 415.83 83.72Z" fill="#ABBCCA"/>
<path d="M415.83 96.18C418.023 96.18 419.8 94.4026 419.8 92.21C419.8 90.0174 418.023 88.24 415.83 88.24C413.637 88.24 411.86 90.0174 411.86 92.21C411.86 94.4026 413.637 96.18 415.83 96.18Z" fill="#ABBCCA"/>
<path d="M432.26 71.55C434.453 71.55 436.23 69.7726 436.23 67.58C436.23 65.3874 434.453 63.61 432.26 63.61C430.067 63.61 428.29 65.3874 428.29 67.58C428.29 69.7726 430.067 71.55 432.26 71.55Z" fill="#ABBCCA"/>
<path d="M432.26 83.72C434.453 83.72 436.23 81.9426 436.23 79.75C436.23 77.5574 434.453 75.78 432.26 75.78C430.067 75.78 428.29 77.5574 428.29 79.75C428.29 81.9426 430.067 83.72 432.26 83.72Z" fill="#ABBCCA"/>
<path d="M432.26 96.18C434.453 96.18 436.23 94.4026 436.23 92.21C436.23 90.0174 434.453 88.24 432.26 88.24C430.067 88.24 428.29 90.0174 428.29 92.21C428.29 94.4026 430.067 96.18 432.26 96.18Z" fill="#ABBCCA"/>
<path d="M249.64 190.27H216.2V119.29H228.53L232.92 154.78L237.45 119.29H249.64V190.27Z" fill="#E3EAF3"/>
<path d="M224.84 163.22C227.033 163.22 228.81 161.443 228.81 159.25C228.81 157.057 227.033 155.28 224.84 155.28C222.647 155.28 220.87 157.057 220.87 159.25C220.87 161.443 222.647 163.22 224.84 163.22Z" fill="#ABBCCA"/>
<path d="M224.84 175.38C227.033 175.38 228.81 173.603 228.81 171.41C228.81 169.217 227.033 167.44 224.84 167.44C222.647 167.44 220.87 169.217 220.87 171.41C220.87 173.603 222.647 175.38 224.84 175.38Z" fill="#ABBCCA"/>
<path d="M224.84 187.85C227.033 187.85 228.81 186.073 228.81 183.88C228.81 181.687 227.033 179.91 224.84 179.91C222.647 179.91 220.87 181.687 220.87 183.88C220.87 186.073 222.647 187.85 224.84 187.85Z" fill="#ABBCCA"/>
<path d="M241.28 163.22C243.473 163.22 245.25 161.443 245.25 159.25C245.25 157.057 243.473 155.28 241.28 155.28C239.087 155.28 237.31 157.057 237.31 159.25C237.31 161.443 239.087 163.22 241.28 163.22Z" fill="#ABBCCA"/>
<path d="M241.28 175.38C243.473 175.38 245.25 173.603 245.25 171.41C245.25 169.217 243.473 167.44 241.28 167.44C239.087 167.44 237.31 169.217 237.31 171.41C237.31 173.603 239.087 175.38 241.28 175.38Z" fill="#ABBCCA"/>
<path d="M241.28 187.85C243.473 187.85 245.25 186.073 245.25 183.88C245.25 181.687 243.473 179.91 241.28 179.91C239.087 179.91 237.31 181.687 237.31 183.88C237.31 186.073 239.087 187.85 241.28 187.85Z" fill="#ABBCCA"/>
<path d="M362.84 279.81H329.4V208.83H341.73L346.12 244.32L350.65 208.83H362.84V279.81Z" fill="#E3EAF3"/>
<path d="M338.04 252.76C340.233 252.76 342.01 250.983 342.01 248.79C342.01 246.597 340.233 244.82 338.04 244.82C335.847 244.82 334.07 246.597 334.07 248.79C334.07 250.983 335.847 252.76 338.04 252.76Z" fill="#ABBCCA"/>
<path d="M338.04 264.92C340.233 264.92 342.01 263.143 342.01 260.95C342.01 258.757 340.233 256.98 338.04 256.98C335.847 256.98 334.07 258.757 334.07 260.95C334.07 263.143 335.847 264.92 338.04 264.92Z" fill="#ABBCCA"/>
<path d="M338.04 277.39C340.233 277.39 342.01 275.613 342.01 273.42C342.01 271.227 340.233 269.45 338.04 269.45C335.847 269.45 334.07 271.227 334.07 273.42C334.07 275.613 335.847 277.39 338.04 277.39Z" fill="#ABBCCA"/>
<path d="M354.48 252.76C356.673 252.76 358.45 250.983 358.45 248.79C358.45 246.597 356.673 244.82 354.48 244.82C352.287 244.82 350.51 246.597 350.51 248.79C350.51 250.983 352.287 252.76 354.48 252.76Z" fill="#ABBCCA"/>
<path d="M354.48 264.92C356.673 264.92 358.45 263.143 358.45 260.95C358.45 258.757 356.673 256.98 354.48 256.98C352.287 256.98 350.51 258.757 350.51 260.95C350.51 263.143 352.287 264.92 354.48 264.92Z" fill="#ABBCCA"/>
<path d="M354.48 277.39C356.673 277.39 358.45 275.613 358.45 273.42C358.45 271.227 356.673 269.45 354.48 269.45C352.287 269.45 350.51 271.227 350.51 273.42C350.51 275.613 352.287 277.39 354.48 277.39Z" fill="#ABBCCA"/>
<path d="M401.58 214.78H368.14V279.81H401.58V214.78Z" fill="#BED5E6"/>
<path d="M376.78 252.76C378.973 252.76 380.75 250.983 380.75 248.79C380.75 246.597 378.973 244.82 376.78 244.82C374.587 244.82 372.81 246.597 372.81 248.79C372.81 250.983 374.587 252.76 376.78 252.76Z" fill="#EF3E3B"/>
<path d="M376.78 264.92C378.973 264.92 380.75 263.143 380.75 260.95C380.75 258.757 378.973 256.98 376.78 256.98C374.587 256.98 372.81 258.757 372.81 260.95C372.81 263.143 374.587 264.92 376.78 264.92Z" fill="#EF3E3B"/>
<path d="M376.78 277.39C378.973 277.39 380.75 275.613 380.75 273.42C380.75 271.227 378.973 269.45 376.78 269.45C374.587 269.45 372.81 271.227 372.81 273.42C372.81 275.613 374.587 277.39 376.78 277.39Z" fill="#EF3E3B"/>
<path d="M393.21 252.76C395.403 252.76 397.18 250.983 397.18 248.79C397.18 246.597 395.403 244.82 393.21 244.82C391.017 244.82 389.24 246.597 389.24 248.79C389.24 250.983 391.017 252.76 393.21 252.76Z" fill="#EF3E3B"/>
<path d="M393.21 264.92C395.403 264.92 397.18 263.143 397.18 260.95C397.18 258.757 395.403 256.98 393.21 256.98C391.017 256.98 389.24 258.757 389.24 260.95C389.24 263.143 391.017 264.92 393.21 264.92Z" fill="#EF3E3B"/>
<path d="M393.21 277.39C395.403 277.39 397.18 275.613 397.18 273.42C397.18 271.227 395.403 269.45 393.21 269.45C391.017 269.45 389.24 271.227 389.24 273.42C389.24 275.613 391.017 277.39 393.21 277.39Z" fill="#EF3E3B"/>
<path d="M376.64 227.73C378.833 227.73 380.61 225.953 380.61 223.76C380.61 221.567 378.833 219.79 376.64 219.79C374.447 219.79 372.67 221.567 372.67 223.76C372.67 225.953 374.447 227.73 376.64 227.73Z" fill="#EF3E3B"/>
<path d="M376.64 240.2C378.833 240.2 380.61 238.423 380.61 236.23C380.61 234.037 378.833 232.26 376.64 232.26C374.447 232.26 372.67 234.037 372.67 236.23C372.67 238.423 374.447 240.2 376.64 240.2Z" fill="#EF3E3B"/>
<path d="M393.07 227.73C395.263 227.73 397.04 225.953 397.04 223.76C397.04 221.567 395.263 219.79 393.07 219.79C390.877 219.79 389.1 221.567 389.1 223.76C389.1 225.953 390.877 227.73 393.07 227.73Z" fill="#EF3E3B"/>
<path d="M393.07 240.2C395.263 240.2 397.04 238.423 397.04 236.23C397.04 234.037 395.263 232.26 393.07 232.26C390.877 232.26 389.1 234.037 389.1 236.23C389.1 238.423 390.877 240.2 393.07 240.2Z" fill="#EF3E3B"/>
<path d="M161.31 98.61H127.88V27.62H140.2L144.59 63.12L149.13 27.62H161.31V98.61Z" fill="#E3EAF3"/>
<path d="M136.52 71.55C138.713 71.55 140.49 69.7726 140.49 67.58C140.49 65.3874 138.713 63.61 136.52 63.61C134.327 63.61 132.55 65.3874 132.55 67.58C132.55 69.7726 134.327 71.55 136.52 71.55Z" fill="#54A4CC"/>
<path d="M136.52 83.72C138.713 83.72 140.49 81.9426 140.49 79.75C140.49 77.5574 138.713 75.78 136.52 75.78C134.327 75.78 132.55 77.5574 132.55 79.75C132.55 81.9426 134.327 83.72 136.52 83.72Z" fill="#54A4CC"/>
<path d="M136.52 96.18C138.713 96.18 140.49 94.4026 140.49 92.21C140.49 90.0174 138.713 88.24 136.52 88.24C134.327 88.24 132.55 90.0174 132.55 92.21C132.55 94.4026 134.327 96.18 136.52 96.18Z" fill="#54A4CC"/>
<path d="M152.95 71.55C155.143 71.55 156.92 69.7726 156.92 67.58C156.92 65.3874 155.143 63.61 152.95 63.61C150.757 63.61 148.98 65.3874 148.98 67.58C148.98 69.7726 150.757 71.55 152.95 71.55Z" fill="#54A4CC"/>
<path d="M152.95 83.72C155.143 83.72 156.92 81.9426 156.92 79.75C156.92 77.5574 155.143 75.78 152.95 75.78C150.757 75.78 148.98 77.5574 148.98 79.75C148.98 81.9426 150.757 83.72 152.95 83.72Z" fill="#54A4CC"/>
<path d="M152.95 96.18C155.143 96.18 156.92 94.4026 156.92 92.21C156.92 90.0174 155.143 88.24 152.95 88.24C150.757 88.24 148.98 90.0174 148.98 92.21C148.98 94.4026 150.757 96.18 152.95 96.18Z" fill="#54A4CC"/>
<path d="M200.05 33.57H166.61V98.6H200.05V33.57Z" fill="#E3EAF3"/>
<path d="M175.25 71.55C177.443 71.55 179.22 69.7726 179.22 67.58C179.22 65.3874 177.443 63.61 175.25 63.61C173.057 63.61 171.28 65.3874 171.28 67.58C171.28 69.7726 173.057 71.55 175.25 71.55Z" fill="#ABBCCA"/>
<path d="M175.25 83.72C177.443 83.72 179.22 81.9426 179.22 79.75C179.22 77.5574 177.443 75.78 175.25 75.78C173.057 75.78 171.28 77.5574 171.28 79.75C171.28 81.9426 173.057 83.72 175.25 83.72Z" fill="#ABBCCA"/>
<path d="M175.25 96.18C177.443 96.18 179.22 94.4026 179.22 92.21C179.22 90.0174 177.443 88.24 175.25 88.24C173.057 88.24 171.28 90.0174 171.28 92.21C171.28 94.4026 173.057 96.18 175.25 96.18Z" fill="#ABBCCA"/>
<path d="M191.69 71.55C193.883 71.55 195.66 69.7726 195.66 67.58C195.66 65.3874 193.883 63.61 191.69 63.61C189.497 63.61 187.72 65.3874 187.72 67.58C187.72 69.7726 189.497 71.55 191.69 71.55Z" fill="#ABBCCA"/>
<path d="M191.69 83.72C193.883 83.72 195.66 81.9426 195.66 79.75C195.66 77.5574 193.883 75.78 191.69 75.78C189.497 75.78 187.72 77.5574 187.72 79.75C187.72 81.9426 189.497 83.72 191.69 83.72Z" fill="#ABBCCA"/>
<path d="M191.69 96.18C193.883 96.18 195.66 94.4026 195.66 92.21C195.66 90.0174 193.883 88.24 191.69 88.24C189.497 88.24 187.72 90.0174 187.72 92.21C187.72 94.4026 189.497 96.18 191.69 96.18Z" fill="#ABBCCA"/>
<path d="M175.11 46.53C177.303 46.53 179.08 44.7526 179.08 42.56C179.08 40.3674 177.303 38.59 175.11 38.59C172.917 38.59 171.14 40.3674 171.14 42.56C171.14 44.7526 172.917 46.53 175.11 46.53Z" fill="#ABBCCA"/>
<path d="M175.11 58.99C177.303 58.99 179.08 57.2126 179.08 55.02C179.08 52.8274 177.303 51.05 175.11 51.05C172.917 51.05 171.14 52.8274 171.14 55.02C171.14 57.2126 172.917 58.99 175.11 58.99Z" fill="#ABBCCA"/>
<path d="M191.55 46.53C193.743 46.53 195.52 44.7526 195.52 42.56C195.52 40.3674 193.743 38.59 191.55 38.59C189.357 38.59 187.58 40.3674 187.58 42.56C187.58 44.7526 189.357 46.53 191.55 46.53Z" fill="#ABBCCA"/>
<path d="M191.55 58.99C193.743 58.99 195.52 57.2126 195.52 55.02C195.52 52.8274 193.743 51.05 191.55 51.05C189.357 51.05 187.58 52.8274 187.58 55.02C187.58 57.2126 189.357 58.99 191.55 58.99Z" fill="#ABBCCA"/>
<path d="M335.78 190.27L305.6 186.8L275.42 190.27V143.8L305.6 147.27L335.78 143.8V190.27Z" fill="#54A4CC"/>
<path d="M275.42 143.8H264.09V190.27H275.42V143.8Z" fill="#EF3E3B"/>
<path d="M347.11 143.8H335.78V190.27H347.11V143.8Z" fill="#EF3E3B"/>
<path d="M321.75 157.62H289.45V176.38H321.75V157.62Z" fill="#E3EAF3"/>
<path d="M287.61 98.61L257.43 95.14L227.25 98.61V52.14L257.43 55.61L287.61 52.14V98.61Z" fill="#EF3E3B"/>
<path d="M227.25 52.14H215.92V98.61H227.25V52.14Z" fill="#54A4CC"/>
<path d="M298.94 52.14H287.61V98.61H298.94V52.14Z" fill="#54A4CC"/>
<path d="M273.58 65.95H241.28V84.71H273.58V65.95Z" fill="#E3EAF3"/>
<path d="M107.82 98.61L77.64 95.14L47.46 98.61V52.14L77.64 55.61L107.82 52.14V98.61Z" fill="#E3EAF3"/>
<path d="M47.46 52.14H36.13V98.61H47.46V52.14Z" fill="#EF3E3B"/>
<path d="M119.15 52.14H107.82V98.61H119.15V52.14Z" fill="#EF3E3B"/>
<path d="M93.79 65.95H61.49V84.71H93.79V65.95Z" fill="#54A4CC"/>
<path d="M226.87 279.81L196.69 276.34L166.51 279.81V233.34L196.69 236.81L226.87 233.34V279.81Z" fill="#EF3E3B"/>
<path d="M166.51 233.34H155.18V279.81H166.51V233.34Z" fill="#E3EAF3"/>
<path d="M238.2 233.34H226.87V279.81H238.2V233.34Z" fill="#E3EAF3"/>
<path d="M212.84 247.15H180.54V265.91H212.84V247.15Z" fill="#54A4CC"/>
<path d="M542.35 0H0V16.15H542.35V0Z" fill="#A04833"/>
<path d="M526.97 189.14H15.37V197.22H526.97V189.14Z" fill="#E3EAF3"/>
<path d="M526.97 98.61H15.37V106.69H526.97V98.61Z" fill="#E3EAF3"/>
<path d="M12.75 8.07001V291.86H527.94V8.07001H12.75ZM514.29 278.61H26.35V12.8H514.29V278.61Z" fill="#A04833"/>
</svg>
